<!-- Source: https://www.svgrepo.com/svg/210347/sudoku -->
<svg xmlns="http://www.w3.org/2000/svg" xml:space="preserve" width="800" height="800" viewBox="0 0 448 448"><path fill="#29a3ec" d="M16 304h128v128H16V304z"/><path fill="#3cdef6" d="M28 316h104v104H28V316z"/><path fill="#29a3ec" d="M16 160h128v128H16V160z"/><path fill="#3cdef6" d="M28 172h104v104H28V172z"/><path fill="#29a3ec" d="M16 16h128v128H16V16z"/><path fill="#3cdef6" d="M28 28h104v104H28V28z"/><path fill="#29a3ec" d="M160 16h128v128H160V16z"/><path fill="#3cdef6" d="M172 28h104v104H172V28z"/><path fill="#fff" d="M223 48c-4 1-7 4-7 8v48a8 8 0 0 0 16 0V56a8 8 0 0 0-9-8z"/><g fill="#5a3392"><path d="M7 0C3 0 0 4 0 8v144c0 4 4 8 8 8h144c4 0 8-4 8-8V8c0-4-4-8-8-8H7zm9 16h128v128H16V16z"/><path d="M151 0c-4 0-7 4-7 8v144c0 4 4 8 8 8h144c4 0 8-4 8-8V8c0-4-4-8-8-8H151zm9 16h128v128H160V16z"/><path d="M295 0c-4 0-7 4-7 8v144c0 4 4 8 8 8h144c4 0 8-4 8-8V8c0-4-4-8-8-8H295z"/></g><path fill="#ee746c" d="M304 16h128v128H304V16z"/><path fill="#fb9761" d="M316 28h104v104H316V28z"/><g fill="#5a3392"><path d="M8 144c-4 0-8 4-8 8v144c0 4 4 8 8 8h144c4 0 8-4 8-8V152c0-4-4-8-8-8H8zm8 16h128v128H16V160z"/><path d="M152 144c-4 0-8 4-8 8v144c0 4 4 8 8 8h144c4 0 8-4 8-8V152c0-4-4-8-8-8H152zm8 16h128v128H160V160z"/><path d="M296 144c-4 0-8 4-8 8v144c0 4 4 8 8 8h144c4 0 8-4 8-8V152c0-4-4-8-8-8H296zm8 16h128v128H304V160z"/><path d="M8 288c-4 0-8 4-8 8v144c0 4 4 8 8 8h144c4 0 8-4 8-8V296c0-4-4-8-8-8H8zm8 16h128v128H16V304z"/><path d="M152 288c-4 0-8 4-8 8v144c0 4 4 8 8 8h144c4 0 8-4 8-8V296c0-4-4-8-8-8H152zm8 16h128v128H160V304z"/><path d="M296 288c-4 0-8 4-8 8v144c0 4 4 8 8 8h144c4 0 8-4 8-8V296c0-4-4-8-8-8H296zm8 16h128v128H304V304z"/></g><path fill="#ee746c" d="M304 304h128v128H304V304z"/><path fill="#fb9761" d="M316 316h104v104H316V316z"/><g fill="#fff"><path d="M343 336a8 8 0 0 0-5 14l48 48a8 8 0 0 0 12-12l-48-48-7-2z"/><path d="m391 336-5 2-48 48a8 8 0 0 0 12 12l48-48a8 8 0 0 0-7-14z"/><path d="M55 48a8 8 0 0 0 1 16h32L62 99a8 8 0 0 0 12 10l36-48a8 8 0 0 0-6-13H55z"/><path d="M80 328a24 24 0 0 0 0 48c13 0 24-11 24-24s-11-24-24-24zm0 16c4 0 8 3 8 8 0 4-4 8-8 8-5 0-8-4-8-8 0-5 3-8 8-8z"/><path d="M80 360c-13 0-24 11-24 24s11 24 24 24 24-11 24-24-11-24-24-24zm0 16c4 0 8 3 8 8 0 4-4 8-8 8-5 0-8-4-8-8 0-5 3-8 8-8z"/></g><path fill="#ee746c" d="M160 160h128v128H160V160z"/><path fill="#fb9761" d="M172 172h104v104H172V172z"/><g fill="#fff"><path d="M199 192a8 8 0 0 0-5 14l48 48a8 8 0 1 0 12-12l-48-48-7-2z"/><path d="m247 192-5 2-48 48a8 8 0 1 0 12 12l48-48a8 8 0 0 0-7-14z"/><path d="M344 48a8 8 0 0 0-6 14l48 48a8 8 0 1 0 12-12l-48-48-6-2z"/><path d="m391 48-5 2-48 48a8 8 0 1 0 12 12l48-48a8 8 0 0 0-7-14z"/><path d="M92 184c-3 0-5 1-6 3l-36 48a8 8 0 0 0 6 13h28v8a8 8 0 1 0 16 0v-8h4a8 8 0 1 0 0-16h-4v-40c0-4-4-8-8-8zm-8 32v16H72l12-16z"/><path d="M304 160h128v128H304V160z"/></g><path fill="#ebfeff" d="M316 172h104v104H316V172z"/><path fill="#fff" d="M160 304h128v128H160V304z"/><path fill="#ebfeff" d="M172 316h104v104H172V316z"/></svg>